<?xml version="1.0" standalone="no"?>
<!DOCTYPE svg PUBLIC "-//W3C//DTD SVG 20010904//EN"
 "http://www.w3.org/TR/2001/REC-SVG-20010904/DTD/svg10.dtd">
<svg version="1.0" xmlns="http://www.w3.org/2000/svg"
 width="256.000000pt" height="256.000000pt" viewBox="0 0 256.000000 256.000000"
 preserveAspectRatio="xMidYMid meet">
<metadata>
Created by potrace 1.14, written by Peter Selinger 2001-2017
</metadata>
<g transform="translate(0.000000,256.000000) scale(0.100000,-0.100000)"
fill="#000000" stroke="none">
<path d="M1192 2423 c-54 -23 -114 -81 -134 -131 -8 -22 -15 -66 -14 -98 1
-48 -3 -62 -21 -81 -40 -39 -24 -95 30 -108 19 -5 29 -16 33 -34 10 -46 26
-80 50 -108 21 -24 24 -38 24 -105 l0 -78 -130 0 c-79 0 -140 -5 -157 -12 -40
-17 -82 -66 -93 -108 -9 -31 -51 -248 -64 -325 -2 -16 -9 -55 -16 -85 -6 -30
-13 -68 -16 -83 -2 -16 -59 -100 -124 -188 l-120 -159 -120 0 c-66 0 -120 -2
-120 -4 0 -23 25 -58 47 -67 28 -11 27 -11 -49 -50 l-78 -39 0 -59 0 -58 43
-16 c71 -26 83 -28 112 -17 l27 10 -26 -30 c-61 -73 -44 -183 38 -244 27 -21
34 -21 966 -21 932 0 939 0 966 21 82 60 99 171 38 243 l-25 30 32 -9 c24 -7
46 -5 88 10 l56 19 3 60 3 60 -78 40 c-43 22 -72 40 -65 41 17 0 62 49 62 66
0 11 -26 14 -120 14 l-120 0 -120 160 -121 161 -30 162 c-16 89 -35 187 -40
217 -6 30 -13 71 -15 90 -9 61 -47 123 -90 147 -35 20 -53 23 -171 23 l-133 0
0 79 c0 56 4 84 14 94 27 26 56 82 57 107 0 14 6 3 14 -28 21 -88 80 -132 179
-132 l57 0 -18 33 c-15 26 -19 66 -23 228 l-5 196 -29 37 c-34 45 -79 66 -140
66 -31 0 -53 7 -73 23 -49 39 -72 48 -136 53 -45 3 -74 -1 -105 -13z m-227
-1262 c32 -47 39 -68 56 -169 l19 -116 -24 -91 c-14 -49 -33 -111 -44 -137
l-21 -46 -73 19 c-43 11 -107 19 -155 19 -70 0 -86 -3 -103 -20 -11 -11 -20
-29 -20 -40 0 -27 35 -60 63 -60 23 0 55 -16 47 -23 -5 -5 -88 -14 -192 -22
-35 -2 -56 -2 -48 1 8 3 30 24 49 47 43 54 96 118 145 176 21 25 45 55 55 66
87 107 110 134 133 160 16 17 28 35 29 40 0 6 2 19 5 30 2 11 6 32 8 47 3 15
10 52 16 82 6 30 12 64 13 75 1 11 2 19 3 18 1 -1 19 -26 39 -56z m692 -75
l21 -124 201 -241 c110 -132 208 -245 218 -251 17 -10 16 -11 -2 -6 -11 3 -42
8 -70 11 -27 3 -77 10 -110 14 -33 5 -64 7 -70 4 -5 -2 -1 3 9 11 11 9 29 16
41 16 57 0 84 61 45 100 -17 17 -33 20 -102 20 -49 0 -113 -8 -156 -19 l-73
-19 -21 46 c-11 26 -31 89 -44 139 -22 81 -24 100 -15 150 6 32 13 74 16 93
13 83 18 100 26 100 5 0 19 18 31 40 13 22 25 40 28 40 3 0 15 -56 27 -124z"/>
</g>
</svg>
